<svg width="19" height="20" viewBox="0 0 19 20" fill="none" xmlns="http://www.w3.org/2000/svg">
<path d="M18.6566 17.5542L14.2614 13.159C15.2458 11.8313 15.841 10.206 15.841 8.42048C15.841 4.04819 12.2928 0.5 7.92048 0.5C3.54819 0.5 0 4.04819 0 8.42048C0 12.7928 3.54819 16.341 7.92048 16.341C9.68313 16.341 11.3313 15.7687 12.659 14.7614L17.0542 19.1566C17.2602 19.3855 17.5578 19.5 17.8554 19.5C18.153 19.5 18.4506 19.3855 18.6566 19.1795C19.1145 18.7217 19.1145 18.012 18.6566 17.5542ZM2.28916 8.42048C2.28916 5.30723 4.80723 2.78916 7.92048 2.78916C11.0337 2.78916 13.5518 5.30723 13.5518 8.42048C13.5518 11.5337 11.0337 14.0518 7.92048 14.0518C4.80723 14.0518 2.28916 11.5337 2.28916 8.42048Z" fill="#0079FF"/>
<path d="M13.8598 12.8613L13.603 13.2077L13.9079 13.5126L18.3031 17.9078C18.5656 18.1703 18.5656 18.5634 18.3031 18.826C18.1987 18.9303 18.032 19 17.8554 19C17.6814 19 17.5256 18.9329 17.4259 18.8221L17.4171 18.8124L17.4078 18.8031L13.0126 14.4079L12.7042 14.0996L12.3568 14.3631C11.1158 15.3046 9.57367 15.841 7.92048 15.841C3.82433 15.841 0.5 12.5166 0.5 8.42048C0.5 4.32433 3.82433 1 7.92048 1C12.0166 1 15.341 4.32433 15.341 8.42048C15.341 10.0917 14.7846 11.6138 13.8598 12.8613ZM7.92048 2.28916C4.53109 2.28916 1.78916 5.03109 1.78916 8.42048C1.78916 11.8099 4.53109 14.5518 7.92048 14.5518C11.3099 14.5518 14.0518 11.8099 14.0518 8.42048C14.0518 5.03109 11.3099 2.28916 7.92048 2.28916Z" stroke="black" stroke-opacity="0.1"/>
</svg>
