<svg width="22" height="22" viewBox="0 0 22 22" fill="none" xmlns="http://www.w3.org/2000/svg">
<path d="M19.8935 7.99837C19.7876 7.67043 19.5044 7.43187 19.1627 7.38237L14.0827 6.64468L11.8112 2.04118C11.6586 1.7325 11.3444 1.53725 11 1.53725C10.6555 1.53725 10.3414 1.7325 10.1887 2.04118L7.91654 6.644L2.83729 7.38168C2.49629 7.43118 2.21304 7.66975 2.10648 7.99768C1.99991 8.32562 2.0886 8.68518 2.33542 8.92581L6.01148 12.5077L5.14385 17.567C5.08542 17.9066 5.22498 18.2497 5.50342 18.4525C5.66085 18.5673 5.84785 18.6251 6.03554 18.6251C6.17923 18.6251 6.3236 18.5907 6.45698 18.5212L11 16.1322L15.5423 18.5212C15.675 18.5914 15.82 18.6251 15.9637 18.6251C16.1514 18.6251 16.3384 18.5673 16.4959 18.4525C16.7743 18.2497 16.9139 17.9066 16.8547 17.5677L15.9871 12.5084L19.6639 8.92718C19.9114 8.68587 20 8.32631 19.8935 7.99837Z" fill="#E0C7C7"/>
</svg>
