<svg width="22" height="22" viewBox="0 0 22 22" fill="none" xmlns="http://www.w3.org/2000/svg">
<path d="M19.8934 7.99847C19.7875 7.67053 19.5043 7.43197 19.1626 7.38247L14.0826 6.64478L11.8111 2.04128C11.6585 1.7326 11.3443 1.53735 10.9999 1.53735C10.6554 1.53735 10.3413 1.7326 10.1886 2.04128L7.91648 6.6441L2.83723 7.38178C2.49623 7.43128 2.21298 7.66985 2.10642 7.99778C1.99985 8.32572 2.08854 8.68528 2.33536 8.92591L6.01142 12.5078L5.14379 17.5671C5.08536 17.9067 5.22492 18.2498 5.50336 18.4526C5.66079 18.5674 5.84779 18.6252 6.03548 18.6252C6.17917 18.6252 6.32354 18.5908 6.45692 18.5213L10.9999 16.1323L15.5422 18.5213C15.6749 18.5915 15.8199 18.6252 15.9636 18.6252C16.1513 18.6252 16.3383 18.5674 16.4958 18.4526C16.7742 18.2498 16.9138 17.9067 16.8546 17.5678L15.987 12.5085L19.6638 8.92728C19.9113 8.68597 19.9999 8.32641 19.8934 7.99847Z" fill="#67AB11"/>
</svg>
